<?xml version="1.0" encoding="UTF-8"?>
<svg version="1.1" xmlns="http://www.w3.org/2000/svg" width="1350" height="393">
<path d="M0 0 C0.70686549 -0.00177501 1.41373097 -0.00355002 2.14201662 -0.00537882 C4.53335676 -0.01014581 6.92463728 -0.0077393 9.31598032 -0.00541991 C11.0460577 -0.0073717 12.77613463 -0.0097601 14.50621086 -0.01254788 C19.29591339 -0.01897272 24.08559919 -0.01910753 28.87530521 -0.01827047 C34.07277086 -0.01843948 39.27023044 -0.02434011 44.46769309 -0.02951133 C54.79220186 -0.03885561 65.11670635 -0.04276245 75.44121882 -0.0450303 C87.80127199 -0.04798761 100.16131943 -0.05668219 112.5213696 -0.06544458 C142.39935118 -0.08630878 172.27733265 -0.09676502 202.15531957 -0.10557419 C212.04839964 -0.10850738 221.9414795 -0.11187716 231.83455932 -0.1155414 C232.88118973 -0.11592884 232.88118973 -0.11592884 233.94896418 -0.1163241 C236.77173126 -0.1173703 239.59449833 -0.11841873 242.41726541 -0.11946992 C290.70162827 -0.13743523 338.98599149 -0.152815 387.27035722 -0.16022895 C391.06374821 -0.16081293 394.85713919 -0.16141019 398.65053018 -0.16200657 C399.40302624 -0.16212469 400.15552229 -0.16224281 400.93082126 -0.16236451 C408.55479305 -0.16356191 416.17876483 -0.16477067 423.80273661 -0.16599704 C425.33137732 -0.16624227 426.86001803 -0.16648613 428.38865874 -0.16672861 C477.4876452 -0.17451908 526.58660777 -0.19690374 575.68558378 -0.22940504 C610.95998885 -0.25274723 646.23438917 -0.27430078 681.50880182 -0.28141135 C682.59671214 -0.28163188 682.59671214 -0.28163188 683.70660045 -0.28185687 C699.6274183 -0.28504154 715.5482361 -0.28709254 731.46905423 -0.28808442 C737.87481226 -0.28849916 744.28057028 -0.28905406 750.68632829 -0.28964633 C751.73794639 -0.28973733 751.73794639 -0.28973733 752.81080929 -0.28983017 C775.40360052 -0.29184701 797.99636355 -0.30609167 820.58914494 -0.32659133 C843.97582746 -0.34773611 867.36246413 -0.35453348 890.74915834 -0.34471754 C904.23800225 -0.33948911 917.72673424 -0.34544328 931.21556211 -0.36725221 C940.21822471 -0.38071144 949.22080985 -0.37972665 958.22347314 -0.36685025 C963.35801261 -0.35992107 968.49233735 -0.35939468 973.62685807 -0.37641034 C978.29639737 -0.39175947 982.96554836 -0.38875147 987.63507586 -0.37100006 C989.31528833 -0.36784594 990.99553011 -0.37141987 992.67570906 -0.38249181 C1004.62194652 -0.45609651 1013.29810124 0.81439442 1022.34299409 9.19130117 C1027.88200612 15.17681307 1030.24335043 20.68908918 1030.32883394 28.82826406 C1030.33701143 29.50514272 1030.34518892 30.18202138 1030.35361421 30.87941152 C1030.3784266 33.12008465 1030.39497902 35.36069429 1030.40940034 37.60145742 C1030.41738586 38.75357622 1030.41738586 38.75357622 1030.4255327 39.92897016 C1030.45225421 43.9993952 1030.47162687 48.06978977 1030.4860605 52.14027578 C1030.49936343 55.49537307 1030.52714872 58.84985692 1030.56809175 62.2047289 C1030.6176632 66.26721454 1030.64221191 70.3291467 1030.64928758 74.39192182 C1030.65596225 75.93277131 1030.67108464 77.4736103 1030.69517839 79.01428586 C1030.86087931 90.2571287 1029.51853925 98.45890817 1021.82346284 107.00380117 C1015.56385894 112.81139866 1008.72136243 115.25265794 1000.27192569 115.25760233 C999.5650602 115.25937734 998.85819472 115.26115235 998.12990906 115.26298115 C995.73856892 115.26774815 993.34728841 115.26534164 990.95594537 115.26302224 C989.22586799 115.26497403 987.49579106 115.26736243 985.76571482 115.27015021 C980.9760123 115.27657505 976.18632649 115.27670987 971.39662048 115.27587281 C966.19915482 115.27604182 961.00169525 115.28194244 955.8042326 115.28711367 C945.47972382 115.29645795 935.15521934 115.30036478 924.83070686 115.30263263 C912.4706537 115.30558994 900.11060626 115.31428453 887.75055609 115.32304691 C857.87257451 115.34391112 827.99459304 115.35436735 798.11660612 115.36317652 C788.22352605 115.36610972 778.33044619 115.3694795 768.43736637 115.37314373 C767.73961276 115.37340202 767.04185916 115.37366031 766.32296151 115.37392643 C763.50019443 115.37497263 760.67742735 115.37602106 757.85466028 115.37707225 C709.57029741 115.39503757 661.2859342 115.41041733 613.00156847 115.41783129 C609.20817748 115.41841526 605.41478649 115.41901253 601.62139551 115.4196089 C600.86889945 115.41972702 600.1164034 115.41984514 599.34110443 115.41996684 C591.71713264 115.42116424 584.09316086 115.422373 576.46918908 115.42359937 C574.94054837 115.42384461 573.41190766 115.42408846 571.88326695 115.42433094 C522.78428049 115.43212142 473.68531792 115.45450607 424.5863419 115.48700737 C389.31193684 115.51034956 354.03753652 115.53190312 318.76312387 115.53901368 C318.03785032 115.5391607 317.31257677 115.53930773 316.56532524 115.5394592 C300.64450739 115.54264387 284.72368959 115.54469487 268.80287146 115.54568675 C262.39711343 115.5461015 255.99135541 115.5466564 249.5855974 115.54724866 C248.5339793 115.54733966 248.5339793 115.54733966 247.4611164 115.54743251 C224.86832517 115.54944934 202.27556214 115.563694 179.68278075 115.58419366 C156.29609823 115.60533844 132.90946156 115.61213581 109.52276735 115.60231987 C96.03392343 115.59709144 82.54519145 115.60304561 69.05636357 115.62485455 C60.05370097 115.63831377 51.05111584 115.63732898 42.04845255 115.62445259 C36.91391308 115.6175234 31.77958834 115.61699701 26.64506762 115.63401268 C21.97552832 115.64936181 17.30637732 115.6463538 12.63684983 115.6286024 C10.95663735 115.62544828 9.27639558 115.62902221 7.59621663 115.64009414 C-4.35002083 115.71369884 -13.02617556 114.44320792 -22.07106841 106.06630117 C-27.61008043 100.08078926 -29.97142474 94.56851316 -30.05690825 86.42933828 C-30.06508574 85.75245961 -30.07326323 85.07558095 -30.08168852 84.37819082 C-30.10650092 82.13751769 -30.12305334 79.89690804 -30.13747466 77.65614492 C-30.14279833 76.88806571 -30.14812201 76.11998651 -30.15360701 75.32863218 C-30.18032852 71.25820713 -30.19970118 67.18781256 -30.21413481 63.11732656 C-30.22743775 59.76222926 -30.25522303 56.40774542 -30.29616606 53.05287343 C-30.34573751 48.99038779 -30.37028622 44.92845563 -30.37736189 40.86568052 C-30.38403656 39.32483103 -30.39915895 37.78399204 -30.4232527 36.24331647 C-30.58895362 25.00047363 -29.24661356 16.79869416 -21.55153716 8.25380117 C-15.29193325 2.44620367 -8.44943674 0.0049444 0 0 Z " fill="#FF011E" transform="translate(317.86403715610504,256.87119883298874)"/>
<path d="M0 0 C1.8203125 1.28125 1.8203125 1.28125 3 3 C3 4.32 3 5.64 3 7 C3.66 7 4.32 7 5 7 C5.6875 9.75 5.6875 9.75 6 13 C4.51953125 15.203125 4.51953125 15.203125 3 17 C3.556875 16.6390625 4.11375 16.278125 4.6875 15.90625 C10.13529679 12.5934006 13.62569499 11.24372652 20 12 C22.3125 12.625 22.3125 12.625 24 14 C25.625 16.875 25.625 16.875 27 20 C27.391875 20.78375 27.78375 21.5675 28.1875 22.375 C28.5896875 23.179375 28.5896875 23.179375 29 24 C30.8253125 23.9071875 30.8253125 23.9071875 32.6875 23.8125 C36.60263761 23.82635889 38.93886779 24.3890343 42 27 C43.66730265 30.16787504 44.62499782 33.43747932 45 37 C44.34 37.99 43.68 38.98 43 40 C43.59425781 40.1959375 44.18851563 40.391875 44.80078125 40.59375 C56.27238715 44.73280532 64.75174786 52.20186439 73 61 C72.69191406 60.23042969 72.38382813 59.46085937 72.06640625 58.66796875 C68.11069943 48.77145682 66.69521206 39.33625163 70 29 C73.42289913 21.55450243 77.3344633 15.79918642 84 11 C84.33 11 84.66 11 85 11 C85 12.98 85 14.96 85 17 C85.99 17 86.98 17 88 17 C88.02187378 18.38336548 88.02187378 18.38336548 88.04418945 19.79467773 C88.10568474 23.25601518 88.17991477 26.71661453 88.26245117 30.17749023 C88.29545795 31.66794757 88.32356327 33.15852262 88.34643555 34.64916992 C88.50348402 46.62907181 88.50348402 46.62907181 92 58 C92.54720703 59.50046875 92.54720703 59.50046875 93.10546875 61.03125 C95.33931241 63.35260506 95.9943666 63.36227068 99.11328125 63.59375 C100.84663522 63.59222773 102.58014301 63.55880104 104.3125 63.5 C105.69211914 63.47885132 105.69211914 63.47885132 107.09960938 63.45727539 C115.08122411 63.24073564 122.92706827 62.26493994 130.80200195 60.98046875 C138.84518278 59.69296375 138.84518278 59.69296375 143 61 C143 62.65 143 64.3 143 66 C143.66 66 144.32 66 145 66 C146.23330539 68.46661078 146.12931918 70.09749148 146.1328125 72.85546875 C146.13498779 73.8599707 146.13716309 74.86447266 146.1394043 75.89941406 C146.13465088 76.98448242 146.12989746 78.06955078 146.125 79.1875 C146.12089111 80.29706055 146.11678223 81.40662109 146.11254883 82.54980469 C146.06158355 90.28556716 145.94174167 98.0181727 145.6875 105.75 C145.66510254 106.70672607 145.64270508 107.66345215 145.61962891 108.64916992 C145.42422247 113.55687763 145.14545976 116.98595484 142 121 C140.1328125 120.703125 140.1328125 120.703125 138 120 C134.77163328 115.06249796 133.80488324 111.16104443 133.1875 105.3125 C132.54641454 99.96005802 132.54641454 99.96005802 129.3125 95.9375 C123.5003542 92.70853011 116.44267463 91.48421977 110 90 C109.69255859 91.26457031 109.69255859 91.26457031 109.37890625 92.5546875 C108.97478516 94.19824219 108.97478516 94.19824219 108.5625 95.875 C108.29566406 96.96554688 108.02882812 98.05609375 107.75390625 99.1796875 C107 102 107 102 106 104 C106.66 104.33 107.32 104.66 108 105 C118.4959977 122.97492724 119.10335413 155.69848262 114.18554688 175.31469727 C108.05852454 196.56718233 96.84455032 218.02758656 84 236 C83.31421875 236.97195312 82.6284375 237.94390625 81.921875 238.9453125 C76.17757648 246.85922017 69.78299108 253.98142023 63 261 C62.3827002 261.63921387 61.76540039 262.27842773 61.12939453 262.93701172 C59.21991793 264.90422004 57.30021261 266.86069675 55.375 268.8125 C54.77083252 269.4297998 54.16666504 270.04709961 53.54418945 270.68310547 C52.0682281 272.16180907 50.53852564 273.58650606 49 275 C48.34 275 47.68 275 47 275 C47 275.66 47 276.32 47 277 C45.28515625 278.69140625 45.28515625 278.69140625 43.0625 280.5625 C42.33160156 281.18253906 41.60070312 281.80257813 40.84765625 282.44140625 C40.23792969 282.95574219 39.62820312 283.47007812 39 284 C37.47402026 285.52597974 37.86548486 286.89085975 37.85473633 289.01879883 C37.84835648 289.87512405 37.84197662 290.73144928 37.83540344 291.61372375 C37.83429062 292.55201523 37.8331778 293.4903067 37.83203125 294.45703125 C37.82870285 295.4292009 37.82537445 296.40137054 37.82194519 297.40299988 C37.81686288 299.47870409 37.81453726 301.55441653 37.81469727 303.63012695 C37.81255463 306.7333847 37.79453846 309.83626054 37.77539062 312.93945312 C37.74701421 322.73540538 37.94181528 332.44387069 38.88671875 342.19921875 C38.96445023 343.0178389 39.0421817 343.83645905 39.12226868 344.67988586 C39.56451742 348.73675274 40.09719923 352.32514519 42 356 C45.82872254 359.06987663 49.51347533 359.60444093 54.3125 360.1875 C56.19388672 360.42533203 56.19388672 360.42533203 58.11328125 360.66796875 C59.54220703 360.83232422 59.54220703 360.83232422 61 361 C62.93820096 355.42767223 64.32415293 349.86286135 63 344 C61.19651737 341.14311957 59.21588113 338.72500182 56.9453125 336.2265625 C53.80124119 332.62792666 53 330.84476534 53 326 C57.32119233 325.35182115 59.63239631 326.12564551 63.0625 328.625 C70.99775786 335.14216995 76.15991274 343.15928946 77.4375 353.5625 C76.92863054 357.56076005 76.24186393 361.50001526 75.4375 365.44921875 C74.8873016 368.22573385 74.8873016 368.22573385 75 372 C73.59102902 372.97286091 72.1710455 373.9337317 70.69921875 374.80859375 C68.80162788 376.1390885 67.61549043 377.5550122 66.1875 379.375 C59.47383086 387.43485472 50.3332279 391.65729913 40 393 C22.41003911 394.40618239 5.94334773 394.59297973 -8.19921875 382.77734375 C-9.85499173 381.14312096 -11.07438372 379.54145579 -12.375 377.625 C-15.92858656 374.07141344 -18.69348243 374.28237918 -23.57421875 374.203125 C-26 374 -26 374 -28 372 C-29.34425815 368.99518767 -30.19689526 366.21241897 -31 363 C-28.36 362.01 -25.72 361.02 -23 360 C-23.32097656 359.14535156 -23.64195313 358.29070312 -23.97265625 357.41015625 C-27.17371927 346.78457443 -24.92840499 336.66965536 -20 327 C-16.08196173 320.3208628 -11.08926175 314.67527699 -5.8203125 309.03125 C1.3415456 301.03947701 -1.82626386 281.02729494 -1.79467773 270.68408203 C-1.78507874 268.6721884 -1.77506754 266.66029669 -1.76467896 264.64840698 C-1.73784254 259.22793377 -1.71671903 253.80745204 -1.69667697 248.38695002 C-1.67468491 242.70683429 -1.64736141 237.02674417 -1.62062073 231.34664917 C-1.57087142 220.6090082 -1.52586731 209.87135287 -1.48259836 199.13368404 C-1.43307338 186.90141071 -1.37821225 174.66916309 -1.32291877 162.43691468 C-1.20937168 137.29130049 -1.10247414 112.14566159 -1 87 C-9.99860073 87.19332652 -18.99672039 87.40121338 -27.99456882 87.62686634 C-32.17423533 87.73124619 -36.35389549 87.83091212 -40.53393555 87.91918945 C-44.58027129 88.00482696 -48.62610318 88.10365022 -52.67191887 88.21100426 C-54.20288317 88.24942759 -55.7339676 88.28337766 -57.26513863 88.31241798 C-76.13402064 88.40500272 -76.13402064 88.40500272 -93.2265625 95.15234375 C-98.14211205 100.27361013 -101.60796776 106.94960282 -104.53125 113.35546875 C-105.0159375 114.22816406 -105.500625 115.10085937 -106 116 C-109.1875 116.875 -109.1875 116.875 -112 117 C-112 115.35 -112 113.7 -112 112 C-112.66 112 -113.32 112 -114 112 C-114.46102855 102.750861 -113.37104927 94.2958408 -111.22900391 85.32397461 C-110.7487923 83.30742851 -110.29283339 81.28648807 -109.83984375 79.26367188 C-106.05926508 62.71340259 -106.05926508 62.71340259 -103 58 C-99.36708419 56.52980088 -97.3896071 57.41619475 -93.8125 58.8125 C-87.59276943 60.8079876 -81.64343319 61.6298868 -75.140625 62.12890625 C-74.06700211 62.21256439 -72.99337921 62.29622253 -71.88722229 62.38241577 C-57.65723975 63.37267195 -43.40695716 63.22548043 -29.15185547 63.1373291 C-25.3961828 63.11641824 -21.64048041 63.10764143 -17.88476562 63.09765625 C-10.58976655 63.07656683 -3.29490816 63.04269623 4 63 C2.730447 62.35165346 1.45930294 61.70642185 0.1875 61.0625 C-0.52019531 60.70285156 -1.22789063 60.34320313 -1.95703125 59.97265625 C-4.11810285 58.89269484 -4.11810285 58.89269484 -7 58 C-7 57.01 -7 56.02 -7 55 C-6.34 54.67 -5.68 54.34 -5 54 C-8.69449878 52.80228219 -12.07996192 53.00557158 -15.9375 53.125 C-22.69778529 53.22426414 -29.24587209 52.63215847 -35.9375 51.6875 C-36.80044678 51.56971191 -37.66339355 51.45192383 -38.55249023 51.33056641 C-44.27834 50.47000859 -49.57120441 49.00656164 -55 47 C-55 46.01 -55 45.02 -55 44 C-53.68 44 -52.36 44 -51 44 C-53.31 43.34 -55.62 42.68 -58 42 C-58 40.68 -58 39.36 -58 38 C-59.794375 37.814375 -59.794375 37.814375 -61.625 37.625 C-65.27596813 37.17674946 -68.54524899 36.29553163 -72 35 C-71.67 33.68 -71.34 32.36 -71 31 C-72.32 30.34 -73.64 29.68 -75 29 C-75 28.34 -75 27.68 -75 27 C-76.57201172 26.69255859 -76.57201172 26.69255859 -78.17578125 26.37890625 C-79.55470769 26.10687314 -80.93361283 25.83473209 -82.3125 25.5625 C-83.00279297 25.42779297 -83.69308594 25.29308594 -84.40429688 25.15429688 C-87.34289007 24.57225668 -90.15456685 23.94847772 -93 23 C-93 22.01 -93 21.02 -93 20 C-92.34 19.67 -91.68 19.34 -91 19 C-92.65 18.34 -94.3 17.68 -96 17 C-96 16.34 -96 15.68 -96 15 C-94.08876343 14.93268677 -94.08876343 14.93268677 -92.13891602 14.86401367 C-87.32803812 14.69138979 -82.5178755 14.50300772 -77.70776367 14.31030273 C-75.64151626 14.22962879 -73.57510596 14.15300554 -71.50854492 14.08081055 C-52.38292005 13.4078633 -32.02751304 12.63068514 -15.3125 2.1875 C-10.5134738 -0.66670507 -5.45668502 -1.07344623 0 0 Z M36 43.25 C31.10289775 45.75914118 26.27663754 47.08385476 20.9375 48.25 C19.8227832 48.49411621 19.8227832 48.49411621 18.68554688 48.74316406 C13.47726768 49.82192374 8.29211008 50.47550941 3 51 C6.68731108 52.9260944 10.45770717 54.08855797 14.4375 55.25 C19.85566808 56.86162416 24.80646327 58.76316464 29.875 61.3125 C35.43838644 64.02821049 39.87262646 64.74690332 46 64 C45.71125 63.01 45.4225 62.02 45.125 61 C41.42972635 47.98585221 41.42972635 47.98585221 42 41 C39.40379504 41 38.25261207 41.95161943 36 43.25 Z M37 87 C37 145.74 37 204.48 37 265 C64.70835946 241.24997761 86.59462175 203.07844521 93 167 C94.0799196 152.90773267 93.58323175 140.06561906 88 127 C87.7642627 126.37432129 87.52852539 125.74864258 87.28564453 125.10400391 C85.69531244 120.90954351 84.01625172 117.34190014 81 114 C77.6741771 112.80879023 74.79282017 112.5066277 71.2734375 112.28515625 C60.50141138 111.34678166 52.08862795 102.83768956 45.44140625 94.97265625 C43.87748437 93.02838857 42.33253885 91.0686086 40.8125 89.08984375 C40.214375 88.40019531 39.61625 87.71054688 39 87 C38.34 87 37.68 87 37 87 Z M102 107 C99.28873335 108.22332906 99.28873335 108.22332906 96.375 109.9375 C95.37210938 110.50339844 94.36921875 111.06929688 93.3359375 111.65234375 C92.56507813 112.09707031 91.79421875 112.54179688 91 113 C91 113.33 91 113.66 91 114 C93.64593488 115.12610897 93.64593488 115.12610897 97 115 C99.67631874 112.95937374 101.83557436 110.56785409 104 108 C103.34 107.67 102.68 107.34 102 107 Z M-4 328 C-10.11034672 335.6709029 -12.86814185 345.27681133 -12 355 C-11.34 355.99 -10.68 356.98 -10 358 C-3.11518623 349.69074201 -2.43747429 338.39630847 -3 328 C-3.33 328 -3.66 328 -4 328 Z M0 375 C1.70577342 375.65256456 3.41476089 376.29673041 5.125 376.9375 C6.07632813 377.29714844 7.02765625 377.65679687 8.0078125 378.02734375 C19.81465939 381.86533967 33.30663095 380.7486658 45 377 C46.35664224 376.03185765 47.694604 375.03620417 49 374 C40.28420765 372.96881912 31.6267657 372.81375851 22.86352539 372.81469727 C20.5423018 372.81248071 18.22153246 372.79417048 15.90039062 372.77539062 C14.4140641 372.7724611 12.92773536 372.77047336 11.44140625 372.76953125 C10.75285049 372.76234573 10.06429474 372.75516022 9.35487366 372.74775696 C5.72987271 372.76505081 3.08416095 373.01960271 0 375 Z " fill="#0299CB" transform="translate(114,0)"/>
<path d="M0 0 C75.9 0 151.8 0 230 0 C230 0.66 230 1.32 230 2 C228.53125 3.14501953 228.53125 3.14501953 226.5 4.3828125 C225.778125 4.82753906 225.05625 5.27226562 224.3125 5.73046875 C223.1678125 6.42076172 223.1678125 6.42076172 222 7.125 C220.8553125 7.82689453 220.8553125 7.82689453 219.6875 8.54296875 C217.79550727 9.7018143 215.89965148 10.85376747 214 12 C214.99 12.61875 215.98 13.2375 217 13.875 C217.99 14.57625 218.98 15.2775 220 16 C220 16.66 220 17.32 220 18 C221.07822021 18.15819214 221.07822021 18.15819214 222.17822266 18.31958008 C225.29085429 19.07013418 227.41940711 20.22059769 230.1484375 21.88671875 C231.14157959 22.48798584 232.13472168 23.08925293 233.15795898 23.70874023 C234.21958252 24.36173096 235.28120605 25.01472168 236.375 25.6875 C238.06888406 26.71724102 239.76276882 27.74698089 241.45671082 28.77662659 C243.19010352 29.83208879 244.92129791 30.89106844 246.65185547 31.95117188 C249.71254145 33.82409566 252.77853263 35.68782087 255.84765625 37.546875 C265.82080305 43.59241684 275.75922741 49.69360971 285.6875 55.8125 C294.73090572 61.3859734 303.79286373 66.92747506 312.875 72.4375 C313.44695099 72.7846405 314.01890198 73.13178101 314.60818481 73.48944092 C320.70978449 77.1924822 326.81485425 80.88969229 332.92611694 84.57676697 C335.53224127 86.14961921 338.13707511 87.72460107 340.74176025 89.29983521 C341.9889481 90.05326116 343.2367837 90.80561599 344.48529053 91.55685425 C346.21310167 92.59652284 347.93863846 93.63996833 349.6640625 94.68359375 C351.14060303 95.57389282 351.14060303 95.57389282 352.64697266 96.48217773 C355 98 355 98 357 100 C341.60421594 100.30579423 326.20866348 100.53394242 310.81054497 100.67355824 C303.65813629 100.740155 296.50763067 100.83067046 289.35644531 100.98071289 C283.11192697 101.11166788 276.86878805 101.19447293 270.62293446 101.22315043 C267.32493136 101.23987808 264.03171496 101.28535924 260.73476791 101.37449074 C242.84056081 101.83843355 231.06138162 99.22217232 216.42560101 88.70702171 C212.36894141 85.85213915 208.11587879 83.31929614 203.875 80.75 C202.1335527 79.66757012 200.39253241 78.5844522 198.65234375 77.5 C192.2741497 73.53931977 185.85744601 69.64245435 179.4375 65.75 C178.855448 65.39696808 178.273396 65.04393616 177.67370605 64.6802063 C172.15562056 61.33353144 166.63561051 57.99003747 161.11474609 54.64794922 C157.9001947 52.70197903 154.68637103 50.75481147 151.47293091 48.80700684 C149.66935141 47.71436881 147.8648475 46.62326941 146.06030273 45.53222656 C144.96016846 44.86545898 143.86003418 44.19869141 142.7265625 43.51171875 C141.76314941 42.92865967 140.79973633 42.34560059 139.80712891 41.74487305 C137 40 137 40 134.28027344 37.81860352 C129.74075415 35.30186646 125.90019982 35.39736669 120.7890625 35.390625 C119.33685806 35.36582062 119.33685806 35.36582062 117.85531616 35.34051514 C114.77847898 35.29212655 111.70213574 35.2706842 108.625 35.25 C106.53252736 35.22183272 104.44007763 35.19190424 102.34765625 35.16015625 C97.23181151 35.08636978 92.1162395 35.03673912 87 35 C87.00523682 36.15185791 87.01047363 37.30371582 87.01586914 38.49047852 C87.03438059 42.88728006 87.04559496 47.28407843 87.05493164 51.6809082 C87.05986908 53.56079696 87.06662 55.44068209 87.07543945 57.32055664 C87.14058888 71.59594619 86.62106528 85.71549848 86 100 C57.29 100 28.58 100 -1 100 C-1 66.66500004 -0.44442716 33.33203724 0 0 Z " fill="#505050" transform="translate(764,136)"/>
<path d="M0 0 C28.71 0 57.42 0 87 0 C87.020625 9.44625 87.04125 18.8925 87.0625 28.625 C87.071604 31.51588379 87.08070801 34.40676758 87.09008789 37.38525391 C87.11164329 58.29399234 86.55067377 79.0743968 86 100 C57.29 100 28.58 100 -1 100 C-1.020625 88.883125 -1.04125 77.76625 -1.0625 66.3125 C-1.071604 62.86981689 -1.08070801 59.42713379 -1.09008789 55.88012695 C-1.09460449 51.50427246 -1.09460449 51.50427246 -1.09544373 49.42253113 C-1.09692776 48.04130221 -1.10032793 46.66007412 -1.10557556 45.27885437 C-1.15988534 30.15745942 -0.52187193 15.13428588 0 0 Z " fill="#515151" transform="translate(458,136)"/>
<path d="M0 0 C0.94650925 -0.00137466 1.89301849 -0.00274933 2.86820984 -0.00416565 C3.90470673 -0.00057037 4.94120361 0.0030249 6.0091095 0.00672913 C7.10194748 0.0065831 8.19478546 0.00643707 9.32073975 0.00628662 C12.94059723 0.00698447 16.56040355 0.01477094 20.18025208 0.02259827 C22.68703178 0.0244629 25.19381184 0.02588659 27.70059204 0.02688599 C33.62913337 0.03031678 39.55765823 0.03820195 45.48619109 0.04823548 C52.89788002 0.06050697 60.30957122 0.06587986 67.7212677 0.07142639 C80.94328227 0.08215742 94.16528163 0.09903789 107.38728333 0.12025452 C107.09784914 1.91228318 106.80558553 3.70385487 106.51228333 5.49525452 C106.26865051 6.99185608 106.26865051 6.99185608 106.02009583 8.51869202 C105.22093055 13.06702771 104.29294973 17.59192248 103.38728333 22.12025452 C56.36228333 22.61525452 56.36228333 22.61525452 8.38728333 23.12025452 C7.72728333 25.76025452 7.06728333 28.40025452 6.38728333 31.12025452 C7.3842926 31.10915146 8.38130188 31.0980484 9.40852356 31.08660889 C18.82426208 30.98506002 28.23988887 30.91020641 37.65605164 30.86119366 C42.49654542 30.83514801 47.33659559 30.79984234 52.17683411 30.74305725 C56.85177443 30.68855735 61.52628923 30.65879615 66.20152283 30.6458683 C67.98127436 30.63666059 69.76100373 30.61867986 71.54057312 30.59160423 C88.92622174 30.33771066 88.92622174 30.33771066 95.38728333 36.12025452 C99.09661632 41.68425401 97.65550239 48.41159738 96.39900208 54.73353577 C95.96885535 56.63585639 95.52734159 58.53564066 95.07478333 60.43275452 C94.86144348 61.39503967 94.64810364 62.35732483 94.42829895 63.34877014 C92.27263085 72.64709972 89.04535482 77.44987036 80.87895203 82.74740601 C75.98025023 84.67346946 71.5506265 84.51519992 66.33308411 84.46083069 C65.23005447 84.46126877 64.12702484 84.46170685 62.99057007 84.4621582 C59.35439694 84.46007265 55.71868815 84.43675182 52.08259583 84.41322327 C49.55768587 84.4076265 47.03277265 84.40335678 44.50785828 84.40036011 C38.54747598 84.39008651 32.58724201 84.36645608 26.62693584 84.33631164 C19.83855756 84.30272772 13.05017117 84.28627162 6.26173043 84.27122533 C-7.69651033 84.23990526 -21.6546044 84.18716979 -35.61271667 84.12025452 C-34.97317762 80.63989987 -34.32503672 77.16120302 -33.67521667 73.68275452 C-33.49281433 72.68953186 -33.31041199 71.6963092 -33.1224823 70.67298889 C-32.94523621 69.72875061 -32.76799011 68.78451233 -32.58537292 67.81166077 C-32.42303162 66.93711243 -32.26069031 66.06256409 -32.09342957 65.16151428 C-31.61271667 63.12025452 -31.61271667 63.12025452 -30.61271667 62.12025452 C-27.66025313 62.02498646 -24.73123246 61.99472999 -21.77848816 62.00672913 C-20.38838531 62.00651009 -20.38838531 62.00651009 -18.97019958 62.00628662 C-15.8913798 62.00698613 -12.8126197 62.0147803 -9.73381042 62.02259827 C-7.6053165 62.02446231 -5.47682214 62.02588628 -3.34832764 62.02688599 C2.26590653 62.03071224 7.880115 62.04054344 13.49433899 62.05158997 C19.21841586 62.06180178 24.94249686 62.06638311 30.6665802 62.07142639 C41.90682589 62.08216561 53.14705248 62.09924331 64.38728333 62.12025452 C64.71728333 59.15025452 65.04728333 56.18025452 65.38728333 53.12025452 C64.38805344 53.12913696 63.38882355 53.13801941 62.35931396 53.14717102 C52.92851006 53.22836496 43.49777736 53.28827175 34.06670284 53.3275032 C29.21841771 53.34835083 24.37041545 53.37661678 19.52229309 53.42201233 C14.84088942 53.46557097 10.15975731 53.48941287 5.47816658 53.49976349 C3.69482208 53.5071369 1.91149193 53.52153555 0.12826347 53.54317474 C-2.3756448 53.57234247 -4.87844041 53.57620503 -7.38249207 53.57435608 C-8.4808564 53.59592773 -8.4808564 53.59592773 -9.60140991 53.61793518 C-15.12776596 53.57396977 -18.15512808 52.1453572 -22.61271667 49.12025452 C-25.80496847 45.51609926 -25.84915629 42.43685019 -25.78874207 37.72596741 C-25.47114053 33.02449554 -24.42903872 28.51295068 -23.36271667 23.93275452 C-23.15775574 22.97433655 -22.9527948 22.01591858 -22.74162292 21.02845764 C-21.27803282 14.61083678 -19.60514257 9.5940624 -14.35881042 5.25697327 C-13.59697449 4.77873108 -12.83513855 4.30048889 -12.05021667 3.80775452 C-11.28580261 3.3166217 -10.52138855 2.82548889 -9.73381042 2.31947327 C-6.39361285 0.4310006 -3.76494209 -0.00421606 0 0 Z " fill="#FFFDFD" transform="translate(396.6127166748047,273.87974548339844)"/>
<path d="M0 0 C1.31806641 -0.00315216 2.63613281 -0.00630432 3.99414062 -0.009552 C5.44401075 -0.00776222 6.89388058 -0.00571127 8.34375 -0.00341797 C9.81966162 -0.00409104 11.29557313 -0.0050611 12.77148438 -0.00631714 C15.86850029 -0.00779395 18.96548742 -0.00564011 22.0625 -0.00097656 C26.04083549 0.00472073 30.01910352 0.00144163 33.99743652 -0.00454903 C37.04622917 -0.0081551 40.09500571 -0.00701584 43.14379883 -0.00442123 C44.61108406 -0.00375209 46.07837074 -0.00457994 47.5456543 -0.00690079 C49.59293593 -0.00942804 51.64022266 -0.00489607 53.6875 0 C55.43836914 0.00119339 55.43836914 0.00119339 57.22460938 0.00241089 C59.84375 0.12939453 59.84375 0.12939453 60.84375 1.12939453 C60.96766682 3.2454455 61.02174906 5.36560736 61.04907227 7.48510742 C61.05897186 8.14849625 61.06887146 8.81188507 61.07907104 9.49537659 C61.11076737 11.69756448 61.13547534 13.89977399 61.16015625 16.10205078 C61.18071878 17.62520421 61.20171505 19.14835184 61.22312927 20.67149353 C61.27842247 24.68770667 61.32779963 28.70397191 61.37597656 32.72027588 C61.42613882 36.81568052 61.48185236 40.91100915 61.53710938 45.00634766 C61.64477954 53.04729908 61.74620467 61.08831394 61.84375 69.12939453 C62.62857758 69.23992661 63.41340515 69.35045868 64.22201538 69.46434021 C71.60939658 70.50538264 78.99629321 71.54977123 86.38266563 72.59794521 C90.18030673 73.13673393 93.97812337 73.67421562 97.77636719 74.20874023 C101.44019225 74.72439673 105.10352167 75.24344729 108.76652908 75.76487923 C110.16582669 75.96345663 111.56530005 76.16079945 112.96494675 76.35690117 C114.9215876 76.63125491 116.87756026 76.91036153 118.83349609 77.18969727 C119.9482431 77.34736069 121.06299011 77.50502411 122.21151733 77.66746521 C124.84375 78.12939453 124.84375 78.12939453 126.84375 79.12939453 C126.84375 81.43939453 126.84375 83.74939453 126.84375 86.12939453 C60.51375 86.12939453 -5.81625 86.12939453 -74.15625 86.12939453 C-74.15625 83.81939453 -74.15625 81.50939453 -74.15625 79.12939453 C-66.75484327 77.35581735 -59.34582788 76.21805941 -51.80859375 75.18408203 C-50.55615372 75.00934357 -49.30371368 74.8346051 -48.01332092 74.65457153 C-44.71430919 74.19495813 -41.41489552 73.73848069 -38.11523438 73.28356934 C-34.73595684 72.81687805 -31.35726337 72.345997 -27.97851562 71.87548828 C-21.37162029 70.95629817 -14.76416224 70.04124395 -8.15625 69.12939453 C-8.14594254 68.27970596 -8.13563507 67.4300174 -8.12501526 66.55458069 C-8.02721311 58.56395512 -7.92472382 50.5734066 -7.81691074 42.58290958 C-7.76164417 38.47449036 -7.70821835 34.36606407 -7.65893555 30.25756836 C-7.61134687 26.29586327 -7.55900633 22.33424735 -7.50330925 18.37264824 C-7.48286069 16.85793707 -7.46415183 15.34320142 -7.44717598 13.82844734 C-7.42318701 11.71391027 -7.3931255 9.59954319 -7.36157227 7.48510742 C-7.34602798 6.27931534 -7.3304837 5.07352325 -7.31446838 3.83119202 C-7.02200103 -1.16309212 -4.43010766 0.00301956 0 0 Z " fill="#505050" transform="translate(1211.15625,153.87060546875)"/>
<path d="M0 0 C16.17 0 32.34 0 49 0 C58.23884708 18.47769417 58.23884708 18.47769417 62.2421875 26.66796875 C62.69546417 27.59434647 63.14874084 28.52072418 63.61575317 29.47517395 C64.56206743 31.40978649 65.50802079 33.34457559 66.45361328 35.27954102 C67.86489406 38.16682466 69.27808596 41.05316738 70.69140625 43.93945312 C73.47129252 49.62129037 76.24025867 55.30835154 79 61 C79.72298279 62.49083099 79.72298279 62.49083099 80.46057129 64.01177979 C81.87708074 66.93910258 83.28732941 69.86934941 84.6953125 72.80078125 C85.12931366 73.69750046 85.56331482 74.59421967 86.01046753 75.51811218 C86.60107468 76.75305168 86.60107468 76.75305168 87.20361328 78.01293945 C87.55175079 78.73705521 87.89988831 79.46117096 88.25857544 80.20722961 C89 82 89 82 89 84 C77.78 84 66.56 84 55 84 C49.555 73.605 49.555 73.605 44 63 C29.81 62.67 15.62 62.34 1 62 C0.34 63.32 -0.32 64.64 -1 66 C-5.67564861 73.26481114 -12.20332125 82.26612113 -20.96905518 84.50231934 C-31.15579182 86.10562643 -41.80495764 85.06141658 -52 84 C-50.47396585 80.78369859 -48.90199229 78.71230701 -46.3125 76.25 C-43.72078619 73.72296354 -41.22913949 71.18699116 -38.875 68.4375 C-35.36273121 64.35064346 -31.68689398 60.42848395 -28 56.5 C-23.63002887 51.84157056 -19.30043028 47.16574002 -15.13671875 42.3203125 C-13.14999973 40.01271446 -13.14999973 40.01271446 -11.13340759 39.84178162 C-10.31844315 39.82623734 -9.5034787 39.81069305 -8.66381836 39.79467773 C-7.7429393 39.77473251 -6.82206024 39.75478729 -5.87327576 39.73423767 C-4.87224319 39.71752518 -3.87121063 39.70081268 -2.83984375 39.68359375 C-1.82024063 39.66281265 -0.80063751 39.64203156 0.24986267 39.62062073 C3.52067048 39.55501148 6.79156137 39.49618766 10.0625 39.4375 C12.27409728 39.39432558 14.48568603 39.35071166 16.69726562 39.30664062 C22.13142436 39.19931855 27.56566698 39.09808355 33 39 C31.68 36.03 30.36 33.06 29 30 C18.77 29.67 8.54 29.34 -2 29 C-0.02 26.69 1.96 24.38 4 22 C4.9820088 20.70511863 5.94854135 19.3976904 6.875 18.0625 C7.926875 16.5465625 7.926875 16.5465625 9 15 C8.3503125 14.08476562 7.700625 13.16953125 7.03125 12.2265625 C6.18725492 11.02621395 5.34351827 9.82568366 4.5 8.625 C4.07074219 8.02171875 3.64148438 7.4184375 3.19921875 6.796875 C0 2.2265625 0 2.2265625 0 0 Z " fill="#FFFCFC" transform="translate(555,274)"/>
<path d="M0 0 C46.2 0 92.4 0 140 0 C139 9 139 9 136 22 C120.16 22.33 104.32 22.66 88 23 C86.71802734 29.10242188 86.71802734 29.10242188 85.41015625 35.328125 C84.72765241 38.57484252 84.04499587 41.82152784 83.36223602 45.06819153 C82.64189216 48.4937829 81.92181657 51.91943016 81.20239258 55.34521484 C80.37665325 59.27719501 79.549687 63.20891626 78.72265625 67.140625 C78.46533218 68.36678528 78.20800812 69.59294556 77.94288635 70.85626221 C77.70271286 71.99714294 77.46253937 73.13802368 77.21508789 74.31347656 C77.00412979 75.31719299 76.79317169 76.32090942 76.57582092 77.3550415 C76.09157595 79.57935778 75.55211231 81.79155075 75 84 C64.77 84 54.54 84 44 84 C47.86645665 63.21779551 52.33127908 42.61336862 57 22 C55.76024414 22.08902588 54.52048828 22.17805176 53.24316406 22.26977539 C48.59347576 22.58009444 43.94466787 22.77347046 39.28759766 22.93383789 C37.28244744 23.0187691 35.2783331 23.13438963 33.27685547 23.2824707 C17.13818065 24.44558218 17.13818065 24.44558218 11.8918457 20.3571167 C6.38447064 14.40881725 2.9840216 7.46005399 0 0 Z " fill="#FFFCFC" transform="translate(975,274)"/>
<path d="M0 0 C124.41 0 248.82 0 377 0 C377 3.96 377 7.92 377 12 C330.84996065 12.22822611 284.69999594 12.40514812 238.5495029 12.51065329 C233.09851207 12.52316006 227.64752236 12.53610331 222.1965332 12.54931641 C221.11135946 12.55193951 220.02618572 12.55456261 218.90812793 12.55726521 C201.34718373 12.60075432 183.78656757 12.67958653 166.22581784 12.77152796 C148.20094773 12.86511084 130.17624919 12.92060202 112.15114611 12.94088495 C101.03241769 12.95459244 89.91461652 12.99785209 78.79617359 13.07916467 C71.16725115 13.13210833 63.53880663 13.14798233 55.9097139 13.13501377 C51.51061398 13.12862105 47.11313182 13.13827495 42.71432114 13.19205475 C38.67948127 13.24102223 34.6473334 13.2429927 30.61236485 13.20898895 C29.15986779 13.20479222 27.707197 13.21723246 26.25503764 13.24883182 C15.87093011 13.46148793 9.95005294 10.97117771 2.30297107 4.34053552 C0 2 0 2 0 0 Z " fill="#515151" transform="translate(306,83)"/>
<path d="M0 0 C36.86712831 -3.95922397 36.86712831 -3.95922397 46.97669983 3.66200256 C52.81838255 8.71806846 57.65006034 14.69885068 62.08520508 21.00219727 C62.7170874 21.66147217 63.34896973 22.32074707 64 23 C68.35406323 22.87342537 71.80858694 19.56772849 75.25 17.125 C77.26852441 15.71118121 79.2881304 14.30296183 81.328125 12.92016602 C83.43407186 11.40670914 85.37983313 9.85356556 87.359375 8.18725586 C98.47539793 -0.78598375 107.56050526 -1.40225158 121.5 -0.6875 C123.40219944 -0.63216388 125.3045567 -0.58200216 127.20703125 -0.53710938 C131.80868098 -0.41748265 136.40253182 -0.22865816 141 0 C138.4364114 2.66829096 135.87566172 4.93042879 132.83203125 7.03125 C131.62897339 7.8668042 131.62897339 7.8668042 130.40161133 8.71923828 C129.54720459 9.30688965 128.69279785 9.89454102 127.8125 10.5 C125.99978101 11.75749687 124.18728455 13.0153146 122.375 14.2734375 C121.46878906 14.90088867 120.56257813 15.52833984 119.62890625 16.17480469 C115.84195837 18.80400439 112.07582241 21.4621421 108.3125 24.125 C106.93622041 25.09768808 105.55991833 26.07034434 104.18359375 27.04296875 C103.16241455 27.76492432 103.16241455 27.76492432 102.12060547 28.50146484 C99.88459648 30.0815504 97.64751444 31.66010678 95.41015625 33.23828125 C94.27163208 34.04144775 94.27163208 34.04144775 93.11010742 34.86083984 C91.67155177 35.8756069 90.23291865 36.89026416 88.79418945 37.90478516 C88.13765381 38.36804199 87.48111816 38.83129883 86.8046875 39.30859375 C86.23733887 39.70876709 85.66999023 40.10894043 85.08544922 40.52124023 C84.39725098 41.00923096 83.70905273 41.49722168 83 42 C82.43576828 42.32309647 81.87153656 42.64619293 81.29020691 42.9790802 C77.71040152 45.17889928 75.66534888 46.85331713 74.47094727 50.96411133 C74.140344 52.49743351 73.8401311 54.037541 73.56640625 55.58203125 C73.31491066 56.80329964 73.31491066 56.80329964 73.05833435 58.04924011 C72.53274351 60.63245326 72.04721392 63.22133932 71.5625 65.8125 C71.21160774 67.57279059 70.85811851 69.33256563 70.50195312 71.09179688 C69.63279115 75.38898232 68.81832111 79.6915925 68 84 C57.77 84 47.54 84 37 84 C39.375 71.75 39.375 71.75 40.11083984 67.96777344 C40.30887207 66.94200195 40.5069043 65.91623047 40.7109375 64.859375 C41.00943604 63.31975098 41.00943604 63.31975098 41.31396484 61.74902344 C41.54035645 60.5118457 41.76674805 59.27466797 42 58 C42.41670456 56.64432419 42.41670456 56.64432419 42.84182739 55.26126099 C44.02645383 50.75368492 44.84941394 47.55258155 42.54336548 43.33752441 C40.17928627 40.59052184 37.68103687 38.15818865 35.0078125 35.7109375 C33.57951663 34.32014538 32.15122301 32.92935095 30.72306633 31.53841591 C28.72538816 29.61085109 26.69642314 27.71780183 24.66772461 25.82299805 C21.59978516 22.94343659 18.57746098 20.01617483 15.55051994 17.09365273 C13.19759708 14.82297197 10.83581895 12.56369007 8.4548645 10.32235718 C7.18387405 9.11937485 7.18387405 9.11937485 5.88720703 7.89208984 C5.13504913 7.18660004 4.38289124 6.48111023 3.60794067 5.75424194 C2 4 2 4 2 2 C1.34 2 0.68 2 0 2 C0 1.34 0 0.68 0 0 Z " fill="#FFFBFB" transform="translate(1136,274)"/>
<path d="M0 0 C132 0 264 0 400 0 C400 3.63 400 7.26 400 11 C350.63103913 11.20602066 301.26212171 11.36459749 251.89281548 11.45958797 C246.06371548 11.47084426 240.23461632 11.48249317 234.40551758 11.49438477 C232.66482198 11.49792596 232.66482198 11.49792596 230.88896082 11.50153869 C212.10130121 11.54069561 193.31388957 11.61165399 174.52637704 11.69437516 C155.24719783 11.77855289 135.96814845 11.82853197 116.688793 11.84679645 C104.793208 11.85914278 92.89832388 11.89812974 81.00295464 11.9712482 C72.84471409 12.01883938 64.68683563 12.03319706 56.52846637 12.0215124 C51.82192867 12.01575019 47.11661521 12.02455177 42.41029549 12.07284927 C38.09696896 12.11678964 33.78568448 12.11877285 29.47226206 12.08809005 C27.91618071 12.08430073 26.35996969 12.09560411 24.8041419 12.12394864 C15.14326315 12.2896472 9.16018994 10.83215002 1.84055978 4.12601322 C0 2 0 2 0 0 Z " fill="#515151" transform="translate(284,65)"/>
<path d="M0 0 C28.71 0 57.42 0 87 0 C87 1.98 87 3.96 87 6 C93.40517048 5.98365792 99.80919358 5.92864821 106.21386719 5.84741211 C108.39022379 5.82429034 110.56669136 5.80985013 112.74316406 5.80444336 C115.88155813 5.79511145 119.01822074 5.75402657 122.15625 5.70703125 C123.12115356 5.7109639 124.08605713 5.71489655 125.0802002 5.71894836 C126.00055054 5.69930527 126.92090088 5.67966217 127.86914062 5.65942383 C129.06827087 5.64943108 129.06827087 5.64943108 130.29162598 5.63923645 C133.09517903 4.97753563 134.28467101 4.15091045 136.58117676 2.4942627 C141.80972925 -0.92223172 146.74227651 -0.66861791 152.83203125 -0.56762695 C153.99387436 -0.56835709 155.15571747 -0.56908722 156.35276794 -0.56983948 C160.17316211 -0.56637053 163.99232017 -0.52753874 167.8125 -0.48828125 C170.46909651 -0.47895065 173.12562555 -0.47158965 175.78222656 -0.46684265 C182.04725578 -0.4513462 188.31184503 -0.41037565 194.57668114 -0.3600952 C201.71330696 -0.30406999 208.84995459 -0.27668231 215.98674583 -0.25161803 C230.65805676 -0.19945531 245.32902222 -0.11159566 260 0 C260 0.66 260 1.32 260 2 C257.99633789 3.40454102 257.99633789 3.40454102 255.22265625 5.00390625 C254.23458984 5.57947266 253.24652344 6.15503906 252.22851562 6.74804688 C251.18373047 7.34681641 250.13894531 7.94558594 249.0625 8.5625 C247.0110647 9.75017307 244.96024914 10.93891748 242.91015625 12.12890625 C241.53549194 12.91890015 241.53549194 12.91890015 240.13305664 13.72485352 C238.09056786 14.828064 238.09056786 14.828064 237 16 C233.96597636 16.09801911 230.95470393 16.12991072 227.92027283 16.12025452 C226.47341365 16.12153615 226.47341365 16.12153615 224.997325 16.12284368 C221.73900229 16.12450142 218.48073014 16.11897233 215.22241211 16.11352539 C212.89717103 16.11324356 210.57192987 16.11340118 208.24668884 16.1139679 C201.9122316 16.11425602 195.57779312 16.10835695 189.24334025 16.10139394 C183.30072885 16.09579342 177.35811821 16.09477212 171.41550452 16.09374207 C159.64182693 16.09155124 147.86815626 16.08489033 136.09448242 16.07543945 C124.65470413 16.06626612 113.21492771 16.0591849 101.77514648 16.05493164 C101.07047825 16.05466892 100.36581002 16.05440619 99.6397882 16.05413551 C96.10481803 16.05283051 92.56984785 16.05156679 89.03487766 16.05032361 C59.68991398 16.03995004 30.34495706 16.02225678 1 16 C-1.38979311 11.22041378 0 5.34373985 0 0 Z " fill="#505050" transform="translate(764,118)"/>
<path d="M0 0 C117.15 0 234.3 0 355 0 C355 1.98 355 3.96 355 6 C309.46 6 263.92 6 217 6 C217 8.97 217 11.94 217 15 C188.29 15 159.58 15 130 15 C130 12.03 130 9.06 130 6 C129.36039243 6.00368717 128.72078485 6.00737434 128.06179523 6.01117325 C112.49627471 6.09952379 96.93084144 6.16570923 81.36513233 6.20724869 C73.8376496 6.227871 66.31033427 6.25598505 58.78295898 6.30175781 C52.22182547 6.34163598 45.66081321 6.36743523 39.09956187 6.37635398 C35.62560211 6.38156716 32.1519892 6.39381246 28.67814064 6.42292023 C24.79943991 6.45515646 20.92107802 6.45595877 17.04223633 6.45410156 C15.31593742 6.47567322 15.31593742 6.47567322 13.55476379 6.49768066 C5.78147807 6.45730572 5.78147807 6.45730572 1.74736023 4.09661865 C0 2 0 2 0 0 Z " fill="#515151" transform="translate(328,100)"/>
<path d="M0 0 C1.8203125 1.28125 1.8203125 1.28125 3 3 C3 4.32 3 5.64 3 7 C3.66 7 4.32 7 5 7 C5.6875 9.75 5.6875 9.75 6 13 C4.51953125 15.203125 4.51953125 15.203125 3 17 C3.556875 16.6390625 4.11375 16.278125 4.6875 15.90625 C10.13529679 12.5934006 13.62569499 11.24372652 20 12 C23.34249479 12.90337697 23.8757632 13.79293866 25.6875 16.8125 C26.83333367 19.5952389 27.56401737 22.03531813 28 25 C11.03545112 39.84398027 -15.53927752 40.16318119 -36.875 40.25 C-38.13441406 40.270625 -39.39382812 40.29125 -40.69140625 40.3125 C-51.64986757 40.3575502 -61.65007427 38.58289103 -72 35 C-71.67 33.68 -71.34 32.36 -71 31 C-72.32 30.34 -73.64 29.68 -75 29 C-75 28.34 -75 27.68 -75 27 C-76.04800781 26.79503906 -77.09601563 26.59007813 -78.17578125 26.37890625 C-79.55470769 26.10687314 -80.93361283 25.83473209 -82.3125 25.5625 C-83.00279297 25.42779297 -83.69308594 25.29308594 -84.40429688 25.15429688 C-87.34289007 24.57225668 -90.15456685 23.94847772 -93 23 C-93 22.01 -93 21.02 -93 20 C-92.34 19.67 -91.68 19.34 -91 19 C-93.475 18.01 -93.475 18.01 -96 17 C-96 16.34 -96 15.68 -96 15 C-94.72584229 14.95512451 -93.45168457 14.91024902 -92.13891602 14.86401367 C-87.32803812 14.69138979 -82.5178755 14.50300772 -77.70776367 14.31030273 C-75.64151626 14.22962879 -73.57510596 14.15300554 -71.50854492 14.08081055 C-52.38292005 13.4078633 -32.02751304 12.63068514 -15.3125 2.1875 C-10.5134738 -0.66670507 -5.45668502 -1.07344623 0 0 Z " fill="#059ACB" transform="translate(114,0)"/>
<path d="M0 0 C28.38 0 56.76 0 86 0 C85 10 85 10 82 22 C63.52 22 45.04 22 26 22 C24.35 30.25 22.7 38.5 21 47 C20.34 48.98 19.68 50.96 19 53 C9.1 53 -0.8 53 -11 53 C-9.8313678 46.57252292 -8.66285386 40.16445064 -7.34375 33.76953125 C-7.19595093 33.04940353 -7.04815186 32.32927582 -6.89587402 31.58732605 C-6.58730393 30.08583758 -6.2780982 28.58447961 -5.96826172 27.08325195 C-5.49878277 24.80659726 -5.03248946 22.52930513 -4.56640625 20.25195312 C-4.26321233 18.77860641 -3.95983332 17.30529778 -3.65625 15.83203125 C-3.51973022 15.16412064 -3.38321045 14.49621002 -3.24255371 13.80805969 C-2.28023175 9.16289676 -1.15288355 4.61153419 0 0 Z " fill="#FFFDFD" transform="translate(676,305)"/>
<path d="M0 0 C44.22 0 88.44 0 134 0 C132.875 11.25 132.875 11.25 131.4375 16.625 C131.03337891 18.16027344 131.03337891 18.16027344 130.62109375 19.7265625 C130.31365234 20.85191406 130.31365234 20.85191406 130 22 C115.0839883 22.39835115 100.1683903 22.69748605 85.24818039 22.88080692 C78.31891122 22.96822102 71.39295875 23.08720479 64.46582031 23.2824707 C57.77396747 23.47101318 51.08625966 23.56895432 44.39163971 23.61291313 C41.84437223 23.64421306 39.29728335 23.70534593 36.75148773 23.79741096 C17.34755566 24.47091143 17.34755566 24.47091143 11.73866272 20.33085251 C6.07722134 14.45324879 2.99263422 7.48158556 0 0 Z " fill="#FFFCFD" transform="translate(820,274)"/>
<path d="M0 0 C44.22 0 88.44 0 134 0 C133.36903034 5.67872697 132.75674087 10.61346162 131.4375 16.0625 C131.03337891 17.75052734 131.03337891 17.75052734 130.62109375 19.47265625 C130.31365234 20.72369141 130.31365234 20.72369141 130 22 C115.0839883 22.39835115 100.1683903 22.69748605 85.24818039 22.88080692 C78.31891122 22.96822102 71.39295875 23.08720479 64.46582031 23.2824707 C57.77396747 23.47101318 51.08625966 23.56895432 44.39163971 23.61291313 C41.84437223 23.64421306 39.29728335 23.70534593 36.75148773 23.79741096 C17.34755566 24.47091143 17.34755566 24.47091143 11.73866272 20.33085251 C6.07722134 14.45324879 2.99263422 7.48158556 0 0 Z " fill="#FFFCFD" transform="translate(664,274)"/>
<path d="M0 0 C66.33 0 132.66 0 201 0 C201 2.64 201 5.28 201 8 C138.39309787 20.8675126 63.47655431 22.5799027 1 8 C0.67 7.67 0.34 7.34 0 7 C0 4.69 0 2.38 0 0 Z " fill="#505050" transform="translate(1137,62)"/>
<path d="M0 0 C38.28 0 76.56 0 116 0 C114.7746423 7.35214622 113.46176337 14.69118317 112 22 C73.72 22 35.44 22 -4 22 C-2.66666667 14.66666667 -1.33333333 7.33333333 0 0 Z " fill="#FFFEFE" transform="translate(825,336)"/>
<path d="M0 0 C28.38 0 56.76 0 86 0 C85 10 85 10 82 22 C53.62 22 25.24 22 -4 22 C-3 13 -3 13 0 0 Z " fill="#FFFDFD" transform="translate(832,305)"/>
<path d="M0 0 C2.63651951 0.02431534 5.27309867 0.04278775 7.90969849 0.05574036 C14.0763696 0.09567516 20.23993786 0.20167354 26.40526021 0.33328372 C33.44025981 0.48010222 40.47543142 0.55043809 47.51158881 0.61532438 C61.94940911 0.75013105 76.38481734 0.97782685 90.8203125 1.26953125 C90.8203125 1.92953125 90.8203125 2.58953125 90.8203125 3.26953125 C75.74393389 16.69592479 59.91081803 18.06918688 40.640625 17.5390625 C38.00410549 17.51474716 35.36752633 17.49627475 32.73092651 17.48332214 C26.5642554 17.44338734 20.40068714 17.33738896 14.23536479 17.20577878 C7.20036519 17.05896028 0.16519358 16.98862441 -6.87096381 16.92373812 C-21.30878411 16.78893145 -35.74419234 16.56123565 -50.1796875 16.26953125 C-50.1796875 15.60953125 -50.1796875 14.94953125 -50.1796875 14.26953125 C-35.10330889 0.84313771 -19.27019303 -0.53012438 0 0 Z " fill="#505050" transform="translate(963.1796875,98.73046875)"/>
<path d="M0 0 C2.66905903 0.01681445 5.33789956 0.03005533 8.00697327 0.03858948 C14.27579117 0.06636183 20.5431658 0.13993424 26.81135327 0.23073488 C33.95767175 0.33196846 41.10406585 0.38097354 48.25092494 0.4259938 C62.92973407 0.5196095 77.60741977 0.67750981 92.28515625 0.87890625 C83.05813271 10.38468149 75.93221878 13.55584246 62.7019043 13.78710938 C57.64830894 13.81510305 52.59969577 13.74267384 47.546875 13.66015625 C44.8526229 13.64073199 42.15837356 13.63344315 39.46406555 13.62585449 C33.12804347 13.60113516 26.79314519 13.53568968 20.45761472 13.45505857 C13.23632863 13.36517881 6.01498466 13.32153895 -1.20672286 13.28149509 C-16.04336739 13.19820587 -30.87903093 13.05778315 -45.71484375 12.87890625 C-32.29569388 -0.77165925 -18.2610529 -0.33976852 0 0 Z " fill="#505050" transform="translate(990.71484375,82.12109375)"/>
<path d="M0 0 C45.21 0 90.42 0 137 0 C137 3.63 137 7.26 137 11 C120.76177109 11.20881985 104.52410051 11.3691923 88.28485394 11.46630955 C80.74371669 11.5126125 73.20343175 11.57567604 65.6628418 11.67895508 C59.08626369 11.76898726 52.51030309 11.82680003 45.93312579 11.84679645 C42.45387791 11.85847664 38.97639566 11.88569151 35.4977169 11.95157051 C31.60321701 12.02471812 27.71040474 12.02588863 23.81518555 12.02172852 C22.67654053 12.054086 21.53789551 12.08644348 20.36474609 12.11978149 C12.22890748 12.02617415 8.00713454 9.49500417 1.95571613 4.12814236 C0 2 0 2 0 0 Z " fill="#505050" transform="translate(715,65)"/>
<path d="M0 0 C28.71 0 57.42 0 87 0 C87 5.28 87 10.56 87 16 C58.29 16 29.58 16 0 16 C0 10.72 0 5.44 0 0 Z " fill="#515151" transform="translate(458,118)"/>
<path d="M0 0 C30.69 0 61.38 0 93 0 C93 12 93 12 92 15 C63.29 15 34.58 15 5 15 C5 12.03 5 9.06 5 6 C2.64167228 3.52791204 2.64167228 3.52791204 0 2 C0 1.34 0 0.68 0 0 Z " fill="#505050" transform="translate(759,100)"/>
<path d="M0 0 C2.66905903 0.01681445 5.33789956 0.03005533 8.00697327 0.03858948 C14.27579117 0.06636183 20.5431658 0.13993424 26.81135327 0.23073488 C33.95767175 0.33196846 41.10406585 0.38097354 48.25092494 0.4259938 C62.92973407 0.5196095 77.60741977 0.67750981 92.28515625 0.87890625 C83.5170359 9.91614667 76.42705924 12.47600675 63.99902344 12.67358398 C59.02520438 12.69828123 54.05524904 12.6346422 49.08203125 12.5625 C46.43113137 12.54942844 43.78036435 12.53912702 41.12945557 12.53248596 C34.89268508 12.51084596 28.65678741 12.45356534 22.42039895 12.38303953 C15.312762 12.30442914 8.20508038 12.26621821 1.09711599 12.23117149 C-13.50731802 12.15826921 -28.11106865 12.03537669 -42.71484375 11.87890625 C-42.71484375 11.21890625 -42.71484375 10.55890625 -42.71484375 9.87890625 C-30.36761672 -1.53843007 -15.86115968 -0.29511566 0 0 Z " fill="#505050" transform="translate(1020.71484375,64.12109375)"/>
<path d="M0 0 C37.95 0 75.9 0 115 0 C115 3.96 115 7.92 115 12 C101.92575547 12.23244929 88.85200828 12.40976067 75.77611256 12.51812172 C69.70326687 12.57015006 63.63184234 12.64063432 57.55981445 12.75439453 C51.69172545 12.86363671 45.82499679 12.92296395 39.95596886 12.94877243 C37.72525318 12.96714614 35.49460589 13.00302674 33.26447487 13.05730057 C20.76373448 13.34922384 11.4305626 13.29373189 2.01469421 4.34848022 C0 2 0 2 0 0 Z " fill="#505050" transform="translate(737,83)"/>
<path d="M0 0 C0.99 0.495 0.99 0.495 2 1 C2.57836914 2.97436523 2.57836914 2.97436523 3.03515625 5.55859375 C3.20466797 6.50283203 3.37417969 7.44707031 3.54882812 8.41992188 C3.71833984 9.41572266 3.88785156 10.41152344 4.0625 11.4375 C4.23587891 12.39849609 4.40925781 13.35949219 4.58789062 14.34960938 C11.72100548 54.8799133 0.2695366 89.58053176 -22.984375 123.1796875 C-23.64953125 124.11039062 -24.3146875 125.04109375 -25 126 C-25.68578125 126.97195312 -26.3715625 127.94390625 -27.078125 128.9453125 C-32.82242352 136.85922017 -39.21700892 143.98142023 -46 151 C-46.6172998 151.63921387 -47.23459961 152.27842773 -47.87060547 152.93701172 C-49.78008207 154.90422004 -51.69978739 156.86069675 -53.625 158.8125 C-54.22916748 159.4297998 -54.83333496 160.04709961 -55.45581055 160.68310547 C-56.9317719 162.16180907 -58.46147436 163.58650606 -60 165 C-60.66 165 -61.32 165 -62 165 C-62 165.66 -62 166.32 -62 167 C-63.71484375 168.69140625 -63.71484375 168.69140625 -65.9375 170.5625 C-66.66839844 171.18253906 -67.39929688 171.80257812 -68.15234375 172.44140625 C-69.06693359 173.21291016 -69.06693359 173.21291016 -70 174 C-72.17749438 176.17749438 -71.1640742 181.32249294 -71.16796875 184.3515625 C-71.17202225 185.31036316 -71.17607574 186.26916382 -71.18025208 187.25701904 C-71.18974809 190.37971277 -71.18964582 193.50229375 -71.1875 196.625 C-71.1882251 197.67455872 -71.1889502 198.72411743 -71.18969727 199.80548096 C-71.18855646 214.63450788 -70.88734881 229.27193878 -69 244 C-71 243 -71 243 -72.02709961 240.52514648 C-76.03983482 225.98565246 -76.70400744 210.42608899 -76.88549805 195.42163086 C-76.92045794 193.41545814 -76.98243632 191.40959204 -77.07006836 189.4050293 C-77.83273464 171.81257634 -77.83273464 171.81257634 -73.40063477 166.05102539 C-70.54568009 162.95452604 -67.39712106 160.47873925 -64 158 C-62.67735504 156.86589217 -61.36171571 155.72337416 -60.0625 154.5625 C-59.44503906 154.03398437 -58.82757813 153.50546875 -58.19140625 152.9609375 C-49.6885093 145.35228461 -41.79581575 137.17435126 -35 128 C-34.21109375 126.95457031 -33.4221875 125.90914063 -32.609375 124.83203125 C-23.58524666 112.68819265 -16.69500209 99.66426222 -10.125 86.0625 C-9.66037354 85.10351807 -9.19574707 84.14453613 -8.71704102 83.15649414 C-6.04788544 77.53734777 -3.81370457 71.94892099 -2 66 C-1.69835937 65.06929688 -1.39671875 64.13859375 -1.0859375 63.1796875 C-0.85132813 62.41914063 -0.61671875 61.65859375 -0.375 60.875 C-0.13523437 60.10929687 0.10453125 59.34359375 0.3515625 58.5546875 C2.01559107 51.9988159 2.19224838 45.53204736 2.1875 38.8125 C2.1884668 37.37958618 2.1884668 37.37958618 2.18945312 35.91772461 C2.12943581 27.6360176 1.40646666 19.50368466 0.4375 11.28515625 C0.00419921 7.49462059 -0.08123693 3.81305835 0 0 Z " fill="#95BDCB" transform="translate(223,110)"/>
<path d="M0 0 C4.41391288 1.10347822 4.68028777 1.44242146 7.125 4.9375 C13.99576752 14.19230538 22.30727591 23.42097889 34 26 C45.02484044 26.99046695 56.43629055 26.54238506 65.625 19.5625 C70.45354482 14.35275427 70.49638385 8.82532414 71 2 C80.76387843 2.73689648 89.42600327 5.71519421 97 12 C97.99 13.485 97.99 13.485 99 15 C98.67 15.99 98.34 16.98 98 18 C96.7315625 16.88625 96.7315625 16.88625 95.4375 15.75 C89.80671745 11.64957536 82.67753368 10.538325 76 9 C75.81824219 9.80824219 75.63648438 10.61648437 75.44921875 11.44921875 C75.19785156 12.51785156 74.94648438 13.58648437 74.6875 14.6875 C74.44386719 15.74324219 74.20023437 16.79898438 73.94921875 17.88671875 C72.58464399 22.36229935 71.29715814 25.10211726 67.3984375 27.80078125 C60.89158913 31.05420544 56.28721877 32.82275051 49 32 C48.34 31.67 47.68 31.34 47 31 C47 31.66 47 32.32 47 33 C37.31657485 33.96405781 29.56579436 31.52347902 21.8515625 25.5703125 C16.06582393 20.56523252 11.10728228 15.02957166 6.5234375 8.8984375 C5.12960933 6.89076618 5.12960933 6.89076618 3 6 C3.24432959 7.25872988 3.24432959 7.25872988 3.49359512 8.54288864 C4.02794502 12.1907743 4.11519887 15.62733866 4.10247803 19.31378174 C4.1013656 20.02803527 4.10025317 20.74228879 4.09910703 21.47818637 C4.09408815 23.85952266 4.08174056 26.2407619 4.06933594 28.62207031 C4.06410021 30.33397303 4.0592736 32.04587704 4.05482483 33.75778198 C4.04120529 38.39793903 4.02076154 43.03804092 3.99825954 47.67816257 C3.98438618 50.5757902 3.97175349 53.47342066 3.9595108 56.3710556 C3.92093766 65.43409542 3.87833716 74.4971024 3.82973552 83.56009412 C3.77360121 94.02961231 3.73062786 104.49907537 3.69905448 114.96869588 C3.67388593 123.06056434 3.63731523 131.15233045 3.59196877 139.24411082 C3.5651203 144.07869636 3.54314571 148.91318908 3.53295135 153.74784088 C3.52304867 158.28859916 3.49905616 162.82906197 3.46401787 167.36969376 C3.45358898 169.03944362 3.44831031 170.70923445 3.44845009 172.37901688 C3.4478624 174.65106765 3.42904928 176.92224195 3.40545654 179.19415283 C3.39954876 180.46765217 3.39364098 181.7411515 3.38755417 183.05324173 C3.25966129 184.02567196 3.13176842 184.99810219 3 186 C1.515 186.99 1.515 186.99 0 188 C0 125.96 0 63.92 0 0 Z " fill="#9ABFCB" transform="translate(148,81)"/>
<path d="M0 0 C1.31806641 -0.00315216 2.63613281 -0.00630432 3.99414062 -0.009552 C5.44401075 -0.00776222 6.89388058 -0.00571127 8.34375 -0.00341797 C9.81966162 -0.00409104 11.29557313 -0.0050611 12.77148438 -0.00631714 C15.86850029 -0.00779395 18.96548742 -0.00564011 22.0625 -0.00097656 C26.04083549 0.00472073 30.01910352 0.00144163 33.99743652 -0.00454903 C37.04622917 -0.0081551 40.09500571 -0.00701584 43.14379883 -0.00442123 C44.61108406 -0.00375209 46.07837074 -0.00457994 47.5456543 -0.00690079 C49.59293593 -0.00942804 51.64022266 -0.00489607 53.6875 0 C55.43836914 0.00119339 55.43836914 0.00119339 57.22460938 0.00241089 C59.84375 0.12939453 59.84375 0.12939453 60.84375 1.12939453 C60.84375 6.07939453 60.84375 11.02939453 60.84375 16.12939453 C38.40375 16.12939453 15.96375 16.12939453 -7.15625 16.12939453 C-7.15625 0.00487769 -7.15625 0.00487769 0 0 Z " fill="#505050" transform="translate(1211.15625,136.87060546875)"/>
<path d="M0 0 C22.44 0 44.88 0 68 0 C68 4.62 68 9.24 68 14 C45.56 14 23.12 14 0 14 C0 9.38 0 4.76 0 0 Z " fill="#505050" transform="translate(1204,120)"/>
<path d="M0 0 C1.31806641 -0.00315216 2.63613281 -0.00630432 3.99414062 -0.009552 C5.44401075 -0.00776222 6.89388058 -0.00571127 8.34375 -0.00341797 C9.81966162 -0.00409104 11.29557313 -0.0050611 12.77148438 -0.00631714 C15.86850029 -0.00779395 18.96548742 -0.00564011 22.0625 -0.00097656 C26.04083549 0.00472073 30.01910352 0.00144163 33.99743652 -0.00454903 C37.04622917 -0.0081551 40.09500571 -0.00701584 43.14379883 -0.00442123 C44.61108406 -0.00375209 46.07837074 -0.00457994 47.5456543 -0.00690079 C49.59293593 -0.00942804 51.64022266 -0.00489607 53.6875 0 C55.43836914 0.00119339 55.43836914 0.00119339 57.22460938 0.00241089 C59.84375 0.12939453 59.84375 0.12939453 60.84375 1.12939453 C60.91633946 3.31578906 60.92748783 5.50439842 60.90625 7.69189453 C60.89722656 8.88943359 60.88820313 10.08697266 60.87890625 11.32080078 C60.86730469 12.24763672 60.85570312 13.17447266 60.84375 14.12939453 C52.12530997 14.15252065 43.40688044 14.17031099 34.68841648 14.1812067 C30.64049258 14.18643495 26.59258959 14.19353152 22.54467773 14.20483398 C18.64139029 14.21566496 14.73812301 14.22167181 10.8348217 14.22427177 C9.34241353 14.22612564 7.85000652 14.22974553 6.35760689 14.23512459 C4.27426861 14.24233784 2.19101469 14.24338536 0.10766602 14.24291992 C-1.08036118 14.24514053 -2.26838837 14.24736115 -3.49241638 14.24964905 C-6.15625 14.12939453 -6.15625 14.12939453 -7.15625 13.12939453 C-7.25498816 11.13139881 -7.28596799 9.12982295 -7.28125 7.12939453 C-7.28382812 6.03626953 -7.28640625 4.94314453 -7.2890625 3.81689453 C-7.04257315 -1.17089006 -4.4044047 0.00300204 0 0 Z " fill="#505050" transform="translate(1211.15625,101.87060546875)"/>
<path d="M0 0 C1.31806641 -0.00315216 2.63613281 -0.00630432 3.99414062 -0.009552 C5.44401075 -0.00776222 6.89388058 -0.00571127 8.34375 -0.00341797 C9.81966162 -0.00409104 11.29557313 -0.0050611 12.77148438 -0.00631714 C15.86850029 -0.00779395 18.96548742 -0.00564011 22.0625 -0.00097656 C26.04083549 0.00472073 30.01910352 0.00144163 33.99743652 -0.00454903 C37.04622917 -0.0081551 40.09500571 -0.00701584 43.14379883 -0.00442123 C44.61108406 -0.00375209 46.07837074 -0.00457994 47.5456543 -0.00690079 C49.59293593 -0.00942804 51.64022266 -0.00489607 53.6875 0 C55.43836914 0.00119339 55.43836914 0.00119339 57.22460938 0.00241089 C59.84375 0.12939453 59.84375 0.12939453 60.84375 1.12939453 C60.91633946 3.31578906 60.92748783 5.50439842 60.90625 7.69189453 C60.89722656 8.88943359 60.88820313 10.08697266 60.87890625 11.32080078 C60.86730469 12.24763672 60.85570312 13.17447266 60.84375 14.12939453 C52.12530997 14.15252065 43.40688044 14.17031099 34.68841648 14.1812067 C30.64049258 14.18643495 26.59258959 14.19353152 22.54467773 14.20483398 C18.64139029 14.21566496 14.73812301 14.22167181 10.8348217 14.22427177 C9.34241353 14.22612564 7.85000652 14.22974553 6.35760689 14.23512459 C4.27426861 14.24233784 2.19101469 14.24338536 0.10766602 14.24291992 C-1.08036118 14.24514053 -2.26838837 14.24736115 -3.49241638 14.24964905 C-6.15625 14.12939453 -6.15625 14.12939453 -7.15625 13.12939453 C-7.25498816 11.13139881 -7.28596799 9.12982295 -7.28125 7.12939453 C-7.28382812 6.03626953 -7.28640625 4.94314453 -7.2890625 3.81689453 C-7.04257315 -1.17089006 -4.4044047 0.00300204 0 0 Z " fill="#505050" transform="translate(1211.15625,82.87060546875)"/>
<path d="M0 0 C1.81640625 1.3828125 1.81640625 1.3828125 3 3 C3.0625 5.375 3.0625 5.375 2 8 C-10.44581776 21.08406483 -34.56700864 21.83107995 -51.4296875 22.26171875 C-83.39507394 22.65935456 -83.39507394 22.65935456 -96 17 C-96 16.34 -96 15.68 -96 15 C-94.72584229 14.95512451 -93.45168457 14.91024902 -92.13891602 14.86401367 C-87.32803812 14.69138979 -82.5178755 14.50300772 -77.70776367 14.31030273 C-75.64151626 14.22962879 -73.57510596 14.15300554 -71.50854492 14.08081055 C-52.38292005 13.4078633 -32.02751304 12.63068514 -15.3125 2.1875 C-10.5134738 -0.66670507 -5.45668502 -1.07344623 0 0 Z " fill="#059ACB" transform="translate(114,0)"/>
<path d="M0 0 C3 1.5 3 1.5 5 3 C4.716064 6.31258663 4.06719476 7.91390671 2 10.5625 C-12.91257485 22.67896707 -36.40508793 22.37397619 -54.71484375 22.37060547 C-57.3652354 22.37498387 -60.01396244 22.41147223 -62.6640625 22.44921875 C-73.98394761 22.52095839 -84.12245324 21.13144186 -95 18 C-95 17.01 -95 16.02 -95 15 C-93.49771851 15.01571045 -93.49771851 15.01571045 -91.96508789 15.03173828 C-88.16108948 15.0686164 -84.3571059 15.09114034 -80.55297852 15.10986328 C-78.92306847 15.11976961 -77.29317542 15.1332984 -75.66333008 15.15087891 C-61.28588918 15.30179987 -47.01472004 14.63804694 -33 11.125 C-31.94341187 10.86674438 -31.94341187 10.86674438 -30.86547852 10.60327148 C-23.78380688 8.80276322 -17.94549405 6.35161132 -11.9375 2.25 C-7.71958578 -0.47231914 -4.97141759 -0.65198919 0 0 Z " fill="#059ACB" transform="translate(151,24)"/>
<path d="M0 0 C1.53413344 0.00186843 3.06826748 0.00329032 4.60240173 0.00428772 C8.61198618 0.00807949 12.62153357 0.0178807 16.63110352 0.0289917 C20.73388162 0.03927818 24.8366658 0.04380075 28.93945312 0.04882812 C36.96876688 0.05950643 44.99805069 0.07654203 53.02734375 0.09765625 C53.02734375 2.07765625 53.02734375 4.05765625 53.02734375 6.09765625 C51.72427528 6.12524773 51.72427528 6.12524773 50.3948822 6.15339661 C42.14345085 6.3304937 33.8924354 6.52052904 25.6416235 6.72452259 C21.40142126 6.82891653 17.16122544 6.92858415 12.9206543 7.0168457 C8.81596799 7.10246312 4.71177955 7.20128472 0.60760689 7.30866051 C-0.94568744 7.34709329 -2.4991005 7.38104126 -4.05259895 7.41007423 C-23.01488564 7.48326484 -23.01488564 7.48326484 -40.19921875 14.25 C-45.1147683 19.37126638 -48.58062401 26.04725907 -51.50390625 32.453125 C-51.98859375 33.32582031 -52.47328125 34.19851562 -52.97265625 35.09765625 C-56.16015625 35.97265625 -56.16015625 35.97265625 -58.97265625 36.09765625 C-58.97265625 34.11765625 -58.97265625 32.13765625 -58.97265625 30.09765625 C-57.98265625 29.76765625 -56.99265625 29.43765625 -55.97265625 29.09765625 C-55.19860672 27.32979332 -55.19860672 27.32979332 -54.72265625 25.16015625 C-52.26777236 17.17224392 -47.25720817 10.03487738 -40.3359375 5.27734375 C-28.16936188 -0.79588904 -13.24060957 -0.04766953 0 0 Z " fill="#97BECB" transform="translate(60.97265625,80.90234375)"/>
<path d="M0 0 C3.21539464 3.21539464 3.89989232 6.72362706 4.25 11.1875 C3.97558504 15.37232818 3.27357724 19.34431173 2.4375 23.44921875 C1.8873016 26.22573385 1.8873016 26.22573385 2 30 C0.59102902 30.97286091 -0.8289545 31.9337317 -2.30078125 32.80859375 C-4.19837212 34.1390885 -5.38450957 35.5550122 -6.8125 37.375 C-13.52616914 45.43485472 -22.6667721 49.65729913 -33 51 C-50.58996089 52.40618239 -67.05665227 52.59297973 -81.19921875 40.77734375 C-82.85499173 39.14312096 -84.07438372 37.54145579 -85.375 35.625 C-88.92858656 32.07141344 -91.69348243 32.28237918 -96.57421875 32.203125 C-99 32 -99 32 -101 30 C-101 28.68 -101 27.36 -101 26 C-97.22407176 25.50837824 -93.76222012 25.33637908 -90 26 C-87.81515063 27.73922663 -86.39997577 29.59124089 -84.7421875 31.83203125 C-79.07042074 38.88994729 -69.75208557 42.79013097 -61 44 C-56.85556594 44.21013534 -52.71179191 44.18509182 -48.5625 44.1875 C-47.45583984 44.19974609 -46.34917969 44.21199219 -45.20898438 44.22460938 C-39.37796955 44.23506547 -34.48497388 44.00399172 -29 42 C-27.989375 41.64421875 -26.97875 41.2884375 -25.9375 40.921875 C-18.32515588 37.88503559 -12.92372735 34.67554296 -7.8125 28.25 C-5.98504446 25.98143451 -4.67882497 25.05239552 -2 24 C-2.309375 22.700625 -2.309375 22.700625 -2.625 21.375 C-3.05564428 17.49920148 -2.22705273 15.68115819 -1 12 C-0.5291919 8.00836614 -0.24664223 4.01118146 0 0 Z " fill="#99BECB" transform="translate(187,342)"/>
<path d="M0 0 C1.32 0.66 2.64 1.32 4 2 C4.0625 4.625 4.0625 4.625 3 8 C-2.97517509 13.90283641 -11.08633088 15.97761789 -19 18 C-19.77601563 18.21527344 -20.55203125 18.43054688 -21.3515625 18.65234375 C-28.22357255 20.31571014 -35.27130272 20.4118179 -42.30883789 20.65893555 C-43.58102173 20.70594604 -43.58102173 20.70594604 -44.87890625 20.75390625 C-45.6479126 20.77783447 -46.41691895 20.8017627 -47.20922852 20.82641602 C-49.02256908 20.81070703 -49.02256908 20.81070703 -50 22 C-59.0665512 22.64407194 -67.9576751 21.94384432 -76.9375 20.6875 C-78.23155762 20.51105957 -78.23155762 20.51105957 -79.55175781 20.33105469 C-85.27773913 19.46962387 -90.57090831 18.00667108 -96 16 C-96 15.01 -96 14.02 -96 13 C-95.22648193 13.07001221 -94.45296387 13.14002441 -93.65600586 13.2121582 C-83.84545217 14.01393118 -74.08975208 14.18620005 -64.25073242 14.18530273 C-61.56998913 14.18749388 -58.88965567 14.20574004 -56.20898438 14.22460938 C-38.66492314 14.28272572 -16.58904565 14.10717318 -2 3 C-1.34 2.01 -0.68 1.02 0 0 Z " fill="#99BECB" transform="translate(155,31)"/>
<path d="M0 0 C0.99 0 1.98 0 3 0 C3.8125 2.6875 3.8125 2.6875 4 6 C-1.03959867 13.6527239 -11.82541969 15.88591456 -20.25 17.75 C-28.48445904 19.41235558 -36.46407926 20.16721043 -44.84375 20.23828125 C-46.23478943 20.25038887 -46.23478943 20.25038887 -47.65393066 20.26274109 C-49.61041438 20.27650512 -51.56692134 20.28726123 -53.5234375 20.29516602 C-55.49356292 20.30663902 -57.46365841 20.32701583 -59.43359375 20.35668945 C-71.92023426 20.54419857 -83.06186068 19.80759509 -95 16 C-95 15.01 -95 14.02 -95 13 C-93.35426767 12.97231478 -91.70838931 12.95330415 -90.0625 12.9375 C-89.14597656 12.92589844 -88.22945312 12.91429687 -87.28515625 12.90234375 C-84.77833524 12.97686281 -82.44913393 13.17273006 -79.97265625 13.48828125 C-56.68783391 16.21493808 -21.69747511 17.19962646 -2 2 C-1.34 1.34 -0.68 0.68 0 0 Z " fill="#9BBFCB" transform="translate(116,7)"/>
<path d="M0 0 C1.32 0.66 2.64 1.32 4 2 C3.89347777 5.72827813 3.10623298 6.89882573 0.375 9.5 C-16.91132548 20.71847245 -41.08802181 21.1694833 -60.875 21.25 C-62.13441406 21.270625 -63.39382812 21.29125 -64.69140625 21.3125 C-75.64986757 21.3575502 -85.65007427 19.58289103 -96 16 C-96 15.01 -96 14.02 -96 13 C-94.66679321 12.97222486 -93.33340287 12.95326659 -92 12.9375 C-91.2575 12.92589844 -90.515 12.91429687 -89.75 12.90234375 C-87 13 -87 13 -83.36181641 13.49121094 C-79.05364195 14.04042092 -74.80050671 14.19405071 -70.4609375 14.23828125 C-69.66535934 14.24793915 -68.86978119 14.25759705 -68.0500946 14.26754761 C-65.49168186 14.29224551 -62.93351888 14.30492324 -60.375 14.3125 C-59.06908401 14.31692612 -59.06908401 14.31692612 -57.73678589 14.32144165 C-40.60731054 14.33466264 -21.17617725 14.21048388 -6.125 4.8125 C-3 3 -3 3 -1 3 C-0.67 2.01 -0.34 1.02 0 0 Z " fill="#96BECB" transform="translate(138,19)"/>
<path d="M0 0 C21.12 0 42.24 0 64 0 C63 4 63 4 61.26400757 5.72375488 C58.56210574 7.24684564 56.8667691 7.39146797 53.77587891 7.41992188 C52.21373154 7.44378967 52.21373154 7.44378967 50.62002563 7.46813965 C48.94026138 7.46844177 48.94026138 7.46844177 47.2265625 7.46875 C45.49181168 7.48017029 45.49181168 7.48017029 43.72201538 7.49182129 C41.2759619 7.50262528 38.82986227 7.5054742 36.38378906 7.50097656 C32.64569881 7.50000538 28.90966828 7.54160416 25.171875 7.5859375 C22.79427511 7.59114534 20.41666809 7.59383268 18.0390625 7.59375 C16.92326813 7.61014526 15.80747375 7.62654053 14.65786743 7.64343262 C5.99847662 7.56652462 5.99847662 7.56652462 2.24755859 4.58789062 C0 2 0 2 0 0 Z " fill="#95BDCB" transform="translate(106,367)"/>
<path d="M0 0 C0.99 0 1.98 0 3 0 C4.23330539 2.46661078 4.12931918 4.09749148 4.1328125 6.85546875 C4.13498779 7.8599707 4.13716309 8.86447266 4.1394043 9.89941406 C4.13227417 11.5270166 4.13227417 11.5270166 4.125 13.1875 C4.11883667 14.85184082 4.11883667 14.85184082 4.11254883 16.54980469 C4.06158355 24.28556716 3.94174167 32.0181727 3.6875 39.75 C3.66510254 40.70672607 3.64270508 41.66345215 3.61962891 42.64916992 C3.42422247 47.55687763 3.14545976 50.98595484 0 55 C-1.32 54.67 -2.64 54.34 -4 54 C-4.33 52.35 -4.66 50.7 -5 49 C-4.01 48.34 -3.02 47.68 -2 47 C-1.48681857 44.90993948 -1.48681857 44.90993948 -1.47583008 42.45849609 C-1.43601517 41.51767181 -1.39620026 40.57684753 -1.35517883 39.60751343 C-1.32691513 38.58976837 -1.29865143 37.57202332 -1.26953125 36.5234375 C-1.229384 35.48305328 -1.18923676 34.44266907 -1.14787292 33.37075806 C-1.02245374 30.03917318 -0.91726343 26.70729227 -0.8125 23.375 C-0.73114644 21.11974334 -0.64848104 18.8645336 -0.56445312 16.609375 C-0.36106227 11.07337163 -0.17428638 5.53699189 0 0 Z " fill="#94BDCB" transform="translate(256,66)"/>
<path d="M0 0 C0.66 0 1.32 0 2 0 C2.75883801 5.74548782 1.97404281 8.50696682 -1.3125 13.3125 C-7.54445452 22.4712024 -8.51387434 31.09444464 -8 42 C-8.66 42 -9.32 42 -10 42 C-13.16087483 33.75643844 -13.52119443 24.03862096 -10.4375 15.6875 C-7.85730578 10.1558606 -4.33780713 4.33780713 0 0 Z " fill="#94BDCB" transform="translate(111,317)"/>
<path d="M0 0 C0.99 0 1.98 0 3 0 C3.33 11.88 3.66 23.76 4 36 C1.14590052 34.57295026 0.64234461 32.45264549 -0.38476562 29.55371094 C-1.60815236 24.47568506 -1.34593012 19.31721754 -1.25 14.125 C-1.24484375 12.98546875 -1.2396875 11.8459375 -1.234375 10.671875 C-1.15492585 2.30985169 -1.15492585 2.30985169 0 0 Z " fill="#8EBCCB" transform="translate(199,17)"/>
<path d="M0 0 C8.28397934 0.16567959 14.87497274 4.16729573 22 8 C22 8.66 22 9.32 22 10 C16.96125718 10.35827672 13.814361 9.28467297 9.3125 7.0625 C4.7424885 4.82014038 4.7424885 4.82014038 0 3 C0 2.01 0 1.02 0 0 Z " fill="#96BECB" transform="translate(107,55)"/>
<path d="M0 0 C3.59648384 2.62446118 6.11692258 4.91999893 8 9 C7.67 9.99 7.34 10.98 7 12 C4.36 8.7 1.72 5.4 -1 2 C-0.67 1.34 -0.34 0.68 0 0 Z " fill="#8BBBCB" transform="translate(170,332)"/>
</svg>
